# xmcd
#
# Track frame offsets:
#	150
#	18858
#	33727
#	50970
#	67112
#	82572
#	99836
#	119047
#	136093
#	152967
#	170337
#	191045
#	205911
#	222857
#	241420
#	264551
#	278604
#
# Disc length: 4046 seconds
#
# Revision: 0
# Processed by: cddbd v1.5.1PL2 Copyright (c) Steve Scherf et al.
# Submitted via: dBpowerAMP V4.0
#
DISCID=f20fcc11
DTITLE=True Masters Of Hip Hop - Various Artists
DYEAR=2002
DGENRE=Hip Hop
TTITLE0=Mr Wendal - Arrested Development
TTITLE1=Innocent - Addis Black Widow
TTITLE2=That's The Way Love Goes - Young MC
TTITLE3=It's A Shame (My Sister) - Monie Love
TTITLE4=Hip Hop Junkies - Nice and Smooth
TTITLE5=Crossover - EPMD
TTITLE6=U Can't Touch This - M.C. Hammer
TTITLE7=Wear Your Love - Definition Of Sound
TTITLE8=Danger - Blahzay Blahzay
TTITLE9=The Gas Face - 3rd Base
TTITLE10=No - Chuck D
TTITLE11=Throw Ya Gunz - Onyx
TTITLE12=Bass - King Tee
TTITLE13=Playaz Club - Rappin' 4 Tay
TTITLE14=Rhyme Fighter - Mellow Man Ace
TTITLE15=Strobelight Honey - Black Sheep
TTITLE16=I Can't Live Without My Radio - LL Cool J
EXTD=
EXTT0=
EXTT1=
EXTT2=
EXTT3=
EXTT4=
EXTT5=
EXTT6=
EXTT7=
EXTT8=
EXTT9=
EXTT10=
EXTT11=
EXTT12=
EXTT13=
EXTT14=
EXTT15=
EXTT16=
PLAYORDER=
